<?xml version="1.0" encoding="utf-8"?>
<!-- Generator: Adobe Illustrator 27.0.1, SVG Export Plug-In . SVG Version: 6.00 Build 0)  -->
<svg version="1.1" id="Слой_1" xmlns="http://www.w3.org/2000/svg" xmlns:xlink="http://www.w3.org/1999/xlink" x="0px" y="0px"
	 viewBox="0 0 618.5 253" style="enable-background:new 0 0 618.5 253;" xml:space="preserve">
<style type="text/css">
	.st0{fill:none;stroke:#1D1D1B;stroke-width:20;stroke-miterlimit:10;}
	.st1{fill:none;stroke:#1D1D1B;stroke-width:2;stroke-miterlimit:10;}
	.st2{fill:#006400;}
</style>
<ellipse class="st0" cx="309.1" cy="126.31" rx="297.5" ry="115"/>
<rect x="159.1" y="11.31" class="st0" width="300" height="230"/>
<line class="st1" x1="95" y1="54.5" x2="543" y2="54.5"/>
<line class="st1" x1="61" y1="66.5" x2="558" y2="66.5"/>
<line class="st1" x1="50" y1="78.76" x2="569" y2="78.24"/>
<line class="st1" x1="28" y1="102.5" x2="589" y2="102.5"/>
<line class="st1" x1="163" y1="30.5" x2="433" y2="30.5"/>
<line class="st1" x1="17.5" y1="138.5" x2="602.5" y2="138.5"/>
<line class="st1" x1="19.5" y1="126.5" x2="604.5" y2="126.5"/>
<line class="st1" x1="22" y1="114.5" x2="602" y2="114.5"/>
<line class="st1" x1="38" y1="90.5" x2="583" y2="90.5"/>
<line class="st1" x1="128" y1="42.5" x2="496" y2="42.5"/>
<line class="st1" x1="24" y1="150.5" x2="604" y2="150.5"/>
<line class="st1" x1="37" y1="174.5" x2="587" y2="174.5"/>
<line class="st1" x1="49" y1="186.5" x2="579" y2="186.5"/>
<line class="st1" x1="62" y1="198.5" x2="552" y2="198.5"/>
<line class="st1" x1="82" y1="210.5" x2="532" y2="210.5"/>
<line class="st1" x1="113" y1="222.5" x2="483" y2="222.5"/>
<line class="st1" x1="29" y1="162.5" x2="599" y2="162.5"/>
<rect x="176" y="21.5" class="st2" width="56" height="210"/>
<rect x="260" y="108.5" class="st2" width="34" height="79"/>
<rect x="228" y="68.5" class="st2" width="35" height="93"/>
<rect x="292" y="142.5" class="st2" width="35" height="89"/>
<rect x="387" y="21.5" class="st2" width="56" height="210"/>
<rect x="356" y="68.5" class="st2" width="36" height="93"/>
<rect x="325" y="108.5" class="st2" width="33" height="79"/>
</svg>
